<svg width="274" height="41" viewBox="0 0 274 41" fill="none" xmlns="http://www.w3.org/2000/svg">
<g filter="url(#filter0_d_1942_55945)">
<rect width="274" height="40" rx="6" fill="#F6F8FA"/>
<path fill-rule="evenodd" clip-rule="evenodd" d="M20.75 12C21.1642 12 21.5 12.3358 21.5 12.75V14H26.5V12.75C26.5 12.3358 26.8358 12 27.25 12C27.6642 12 28 12.3358 28 12.75V14H29.25C30.2165 14 31 14.7835 31 15.75V26.25C31 27.2165 30.2165 28 29.25 28H18.75C17.7835 28 17 27.2165 17 26.25V15.75C17 14.7835 17.7835 14 18.75 14H20V12.75C20 12.3358 20.3358 12 20.75 12ZM29.25 15.5C29.3881 15.5 29.5 15.6119 29.5 15.75V18H18.5V15.75C18.5 15.6119 18.6119 15.5 18.75 15.5H29.25ZM18.5 19.5V26.25C18.5 26.3881 18.6119 26.5 18.75 26.5H29.25C29.3881 26.5 29.5 26.3881 29.5 26.25V19.5H18.5Z" fill="#57606A"/>
<path d="M43.0031 21.2881H44.9582L46.8928 25H48.9094L46.7561 21.0215C47.9318 20.5977 48.6154 19.5107 48.6154 18.2051C48.6154 16.3184 47.3166 15.1357 45.2453 15.1357H41.2395V25H43.0031V21.2881ZM43.0031 16.5645H44.9992C46.1203 16.5645 46.8039 17.2002 46.8039 18.2393C46.8039 19.2988 46.1613 19.9072 45.0402 19.9072H43.0031V16.5645ZM55.0689 22.9561C54.8229 23.5166 54.2418 23.8311 53.401 23.8311C52.2867 23.8311 51.5689 23.0381 51.5279 21.7734V21.6846H56.7506V21.1445C56.7506 18.7998 55.4723 17.3848 53.3395 17.3848C51.1725 17.3848 49.8258 18.8955 49.8258 21.2949C49.8258 23.6875 51.152 25.1504 53.3531 25.1504C55.1168 25.1504 56.3678 24.3027 56.6754 22.9561H55.0689ZM53.3326 18.7041C54.3512 18.7041 55.0211 19.4219 55.0553 20.5566H51.5348C51.61 19.4355 52.3209 18.7041 53.3326 18.7041ZM64.6465 17.5283H62.8555L61.1397 23.3389H61.0234L59.2939 17.5283H57.4756L60.1348 25H62.001L64.6465 17.5283ZM66.7934 16.2773C67.3539 16.2773 67.8119 15.833 67.8119 15.2725C67.8119 14.7188 67.3539 14.2676 66.7934 14.2676C66.2397 14.2676 65.7816 14.7188 65.7816 15.2725C65.7816 15.833 66.2397 16.2773 66.7934 16.2773ZM65.9525 25H67.641V17.5283H65.9525V25ZM74.4705 22.9561C74.2244 23.5166 73.6434 23.8311 72.8025 23.8311C71.6883 23.8311 70.9705 23.0381 70.9295 21.7734V21.6846H76.1522V21.1445C76.1522 18.7998 74.8738 17.3848 72.741 17.3848C70.574 17.3848 69.2273 18.8955 69.2273 21.2949C69.2273 23.6875 70.5535 25.1504 72.7547 25.1504C74.5184 25.1504 75.7693 24.3027 76.077 22.9561H74.4705ZM72.7342 18.7041C73.7527 18.7041 74.4227 19.4219 74.4568 20.5566H70.9363C71.0115 19.4355 71.7225 18.7041 72.7342 18.7041ZM87.6232 17.5283H85.9348L84.6975 23.1406H84.5813L83.132 17.5283H81.5119L80.0764 23.1406H79.9602L78.716 17.5283H77.007L79.0305 25H80.7941L82.2434 19.5859H82.3596L83.8156 25H85.5998L87.6232 17.5283ZM93.0791 15.6963V17.5762H91.8965V18.8955H93.0791V23.0176C93.0791 24.46 93.7627 25.0342 95.4785 25.0342C95.8066 25.0342 96.1211 25.0068 96.3672 24.959V23.6602C96.1621 23.6807 96.0322 23.6943 95.793 23.6943C95.082 23.6943 94.7676 23.3594 94.7676 22.6143V18.8955H96.3672V17.5762H94.7676V15.6963H93.0791ZM97.9809 25H99.6762V20.6592C99.6762 19.5654 100.298 18.834 101.413 18.834C102.397 18.834 102.916 19.4219 102.916 20.5771V25H104.612V20.1807C104.612 18.4033 103.641 17.3916 102.041 17.3916C100.927 17.3916 100.127 17.8975 99.7719 18.7383H99.6488V14.6367H97.9809V25ZM111.346 22.9561C111.099 23.5166 110.518 23.8311 109.678 23.8311C108.563 23.8311 107.846 23.0381 107.804 21.7734V21.6846H113.027V21.1445C113.027 18.7998 111.749 17.3848 109.616 17.3848C107.449 17.3848 106.102 18.8955 106.102 21.2949C106.102 23.6875 107.429 25.1504 109.63 25.1504C111.393 25.1504 112.644 24.3027 112.952 22.9561H111.346ZM109.609 18.7041C110.628 18.7041 111.298 19.4219 111.332 20.5566H107.811C107.887 19.4355 108.597 18.7041 109.609 18.7041ZM120.219 25.123C121.197 25.123 122.017 24.6992 122.434 23.9746H122.55V25H124.184V19.8936C124.184 18.3145 123.104 17.3848 121.183 17.3848C119.406 17.3848 118.169 18.2188 118.032 19.5244H119.631C119.789 19.0117 120.322 18.7314 121.101 18.7314C122.017 18.7314 122.509 19.1484 122.509 19.8936V20.5361L120.582 20.6523C118.763 20.7549 117.745 21.541 117.745 22.8809C117.745 24.248 118.777 25.123 120.219 25.123ZM120.718 23.8174C119.966 23.8174 119.426 23.4414 119.426 22.7988C119.426 22.1768 119.871 21.8281 120.821 21.7666L122.509 21.6504V22.2588C122.509 23.1475 121.744 23.8174 120.718 23.8174ZM125.907 19.6611C125.907 20.7822 126.584 21.4385 128.02 21.7666L129.346 22.0742C130.057 22.2383 130.378 22.5117 130.378 22.9355C130.378 23.5029 129.783 23.8926 128.929 23.8926C128.081 23.8926 127.555 23.5508 127.391 22.9971H125.716C125.846 24.3438 127.021 25.1504 128.888 25.1504C130.754 25.1504 132.073 24.2002 132.073 22.7715C132.073 21.6709 131.41 21.0625 129.981 20.7344L128.662 20.4404C127.91 20.2627 127.555 19.9961 127.555 19.5723C127.555 19.0186 128.136 18.6426 128.908 18.6426C129.701 18.6426 130.2 18.9844 130.323 19.5107H131.916C131.793 18.1641 130.679 17.3848 128.901 17.3848C127.138 17.3848 125.907 18.3213 125.907 19.6611ZM133.331 19.6611C133.331 20.7822 134.008 21.4385 135.444 21.7666L136.77 22.0742C137.481 22.2383 137.802 22.5117 137.802 22.9355C137.802 23.5029 137.207 23.8926 136.353 23.8926C135.505 23.8926 134.979 23.5508 134.815 22.9971H133.14C133.27 24.3438 134.446 25.1504 136.312 25.1504C138.178 25.1504 139.497 24.2002 139.497 22.7715C139.497 21.6709 138.834 21.0625 137.406 20.7344L136.086 20.4404C135.334 20.2627 134.979 19.9961 134.979 19.5723C134.979 19.0186 135.56 18.6426 136.332 18.6426C137.125 18.6426 137.624 18.9844 137.747 19.5107H139.34C139.217 18.1641 138.103 17.3848 136.326 17.3848C134.562 17.3848 133.331 18.3213 133.331 19.6611ZM141.925 16.2773C142.485 16.2773 142.943 15.833 142.943 15.2725C142.943 14.7188 142.485 14.2676 141.925 14.2676C141.371 14.2676 140.913 14.7188 140.913 15.2725C140.913 15.833 141.371 16.2773 141.925 16.2773ZM141.084 25H142.772V17.5283H141.084V25ZM147.941 27.8438C150.121 27.8438 151.502 26.7568 151.502 25.041V17.5283H149.868V18.7246H149.752C149.342 17.9111 148.453 17.4053 147.435 17.4053C145.528 17.4053 144.345 18.8955 144.345 21.1855C144.345 23.4277 145.521 24.8906 147.407 24.8906C148.446 24.8906 149.26 24.4531 149.691 23.6465H149.807V25.0684C149.807 26.0186 149.13 26.5791 147.968 26.5791C147.038 26.5791 146.437 26.2441 146.327 25.7178H144.625C144.762 27.0029 146.02 27.8438 147.941 27.8438ZM147.941 23.5439C146.758 23.5439 146.088 22.6279 146.088 21.1787C146.088 19.7363 146.758 18.8203 147.941 18.8203C149.116 18.8203 149.834 19.7363 149.834 21.1855C149.834 22.6279 149.123 23.5439 147.941 23.5439ZM153.437 25H155.132V20.6455C155.132 19.5244 155.768 18.8203 156.78 18.8203C157.812 18.8203 158.291 19.4014 158.291 20.5635V25H159.986V20.167C159.986 18.3896 159.077 17.3848 157.409 17.3848C156.295 17.3848 155.543 17.8906 155.187 18.7246H155.071V17.5283H153.437V25ZM161.846 25H163.541V20.4541C163.541 19.5244 164.163 18.8203 165.004 18.8203C165.838 18.8203 166.357 19.3262 166.357 20.1533V25H168.005V20.3311C168.005 19.4766 168.586 18.8203 169.468 18.8203C170.377 18.8203 170.835 19.3057 170.835 20.2764V25H172.523V19.8594C172.523 18.3076 171.621 17.3848 170.124 17.3848C169.085 17.3848 168.224 17.918 167.854 18.7314H167.738C167.424 17.9043 166.706 17.3848 165.674 17.3848C164.683 17.3848 163.917 17.8906 163.596 18.7314H163.479V17.5283H161.846V25ZM179.257 22.9561C179.011 23.5166 178.43 23.8311 177.589 23.8311C176.475 23.8311 175.757 23.0381 175.716 21.7734V21.6846H180.939V21.1445C180.939 18.7998 179.661 17.3848 177.528 17.3848C175.361 17.3848 174.014 18.8955 174.014 21.2949C174.014 23.6875 175.34 25.1504 177.541 25.1504C179.305 25.1504 180.556 24.3027 180.864 22.9561H179.257ZM177.521 18.7041C178.539 18.7041 179.209 19.4219 179.244 20.5566H175.723C175.798 19.4355 176.509 18.7041 177.521 18.7041ZM182.491 25H184.186V20.6455C184.186 19.5244 184.822 18.8203 185.834 18.8203C186.866 18.8203 187.345 19.4014 187.345 20.5635V25H189.04V20.167C189.04 18.3896 188.131 17.3848 186.463 17.3848C185.348 17.3848 184.596 17.8906 184.241 18.7246H184.125V17.5283H182.491V25ZM191.44 15.6963V17.5762H190.257V18.8955H191.44V23.0176C191.44 24.46 192.123 25.0342 193.839 25.0342C194.167 25.0342 194.482 25.0068 194.728 24.959V23.6602C194.523 23.6807 194.393 23.6943 194.154 23.6943C193.443 23.6943 193.128 23.3594 193.128 22.6143V18.8955H194.728V17.5762H193.128V15.6963H191.44ZM202.562 25.123C203.602 25.123 204.463 24.6377 204.887 23.8174H205.003V25H206.644V14.6367H204.948V18.7178H204.832C204.436 17.8975 203.588 17.4053 202.562 17.4053C200.676 17.4053 199.486 18.8955 199.486 21.2607C199.486 23.6328 200.669 25.123 202.562 25.123ZM203.089 18.8203C204.251 18.8203 204.969 19.7568 204.969 21.2676C204.969 22.7852 204.258 23.7148 203.089 23.7148C201.927 23.7148 201.223 22.7988 201.223 21.2676C201.223 19.7432 201.934 18.8203 203.089 18.8203ZM215.141 17.5283H213.446V21.8828C213.446 23.0107 212.844 23.6943 211.744 23.6943C210.732 23.6943 210.26 23.1338 210.26 21.9717V17.5283H208.565V22.3818C208.565 24.1318 209.522 25.1504 211.156 25.1504C212.297 25.1504 213.029 24.665 213.391 23.8105H213.507V25H215.141V17.5283ZM221.943 22.9561C221.697 23.5166 221.116 23.8311 220.275 23.8311C219.161 23.8311 218.443 23.0381 218.402 21.7734V21.6846H223.625V21.1445C223.625 18.7998 222.346 17.3848 220.214 17.3848C218.047 17.3848 216.7 18.8955 216.7 21.2949C216.7 23.6875 218.026 25.1504 220.227 25.1504C221.991 25.1504 223.242 24.3027 223.55 22.9561H221.943ZM220.207 18.7041C221.225 18.7041 221.895 19.4219 221.929 20.5566H218.409C218.484 19.4355 219.195 18.7041 220.207 18.7041ZM231.466 25.123C232.505 25.123 233.367 24.6377 233.791 23.8174H233.907V25H235.547V14.6367H233.852V18.7178H233.736C233.339 17.8975 232.492 17.4053 231.466 17.4053C229.58 17.4053 228.39 18.8955 228.39 21.2607C228.39 23.6328 229.573 25.123 231.466 25.123ZM231.993 18.8203C233.155 18.8203 233.873 19.7568 233.873 21.2676C233.873 22.7852 233.162 23.7148 231.993 23.7148C230.831 23.7148 230.127 22.7988 230.127 21.2676C230.127 19.7432 230.838 18.8203 231.993 18.8203ZM239.595 25.123C240.572 25.123 241.393 24.6992 241.81 23.9746H241.926V25H243.56V19.8936C243.56 18.3145 242.479 17.3848 240.559 17.3848C238.781 17.3848 237.544 18.2188 237.407 19.5244H239.007C239.164 19.0117 239.697 18.7314 240.477 18.7314C241.393 18.7314 241.885 19.1484 241.885 19.8936V20.5361L239.957 20.6523C238.139 20.7549 237.12 21.541 237.12 22.8809C237.12 24.248 238.152 25.123 239.595 25.123ZM240.094 23.8174C239.342 23.8174 238.802 23.4414 238.802 22.7988C238.802 22.1768 239.246 21.8281 240.196 21.7666L241.885 21.6504V22.2588C241.885 23.1475 241.119 23.8174 240.094 23.8174ZM245.994 15.6963V17.5762H244.811V18.8955H245.994V23.0176C245.994 24.46 246.677 25.0342 248.393 25.0342C248.721 25.0342 249.036 25.0068 249.282 24.959V23.6602C249.077 23.6807 248.947 23.6943 248.707 23.6943C247.996 23.6943 247.682 23.3594 247.682 22.6143V18.8955H249.282V17.5762H247.682V15.6963H245.994ZM255.633 22.9561C255.387 23.5166 254.805 23.8311 253.965 23.8311C252.85 23.8311 252.133 23.0381 252.092 21.7734V21.6846H257.314V21.1445C257.314 18.7998 256.036 17.3848 253.903 17.3848C251.736 17.3848 250.389 18.8955 250.389 21.2949C250.389 23.6875 251.716 25.1504 253.917 25.1504C255.68 25.1504 256.931 24.3027 257.239 22.9561H255.633ZM253.896 18.7041C254.915 18.7041 255.585 19.4219 255.619 20.5566H252.098C252.174 19.4355 252.885 18.7041 253.896 18.7041Z" fill="#24292F"/>
<rect x="0.5" y="0.5" width="273" height="39" rx="5.5" stroke="#1B1F24" stroke-opacity="0.15"/>
</g>
<defs>
<filter id="filter0_d_1942_55945" x="0" y="0" width="274" height="41" filterUnits="userSpaceOnUse" color-interpolation-filters="sRGB">
<feFlood flood-opacity="0" result="BackgroundImageFix"/>
<feColorMatrix in="SourceAlpha" type="matrix" values="0 0 0 0 0 0 0 0 0 0 0 0 0 0 0 0 0 0 127 0" result="hardAlpha"/>
<feOffset dy="1"/>
<feColorMatrix type="matrix" values="0 0 0 0 0.105882 0 0 0 0 0.121569 0 0 0 0 0.137255 0 0 0 0.04 0"/>
<feBlend mode="normal" in2="BackgroundImageFix" result="effect1_dropShadow_1942_55945"/>
<feBlend mode="normal" in="SourceGraphic" in2="effect1_dropShadow_1942_55945" result="shape"/>
</filter>
</defs>
</svg>
